<svg width="558" height="558" viewBox="0 0 558 558" fill="none" xmlns="http://www.w3.org/2000/svg">
<mask id="mask0_1_38" style="mask-type:alpha" maskUnits="userSpaceOnUse" x="0" y="0" width="558" height="558">
<rect width="558" height="558" rx="279" fill="#FF0000"/>
</mask>
<g mask="url(#mask0_1_38)">
<rect x="-0.843018" width="558" height="558" rx="279" fill="#FF0000"/>
<path d="M145.269 368.193C127.237 368.193 113.225 363.563 103.235 354.303C93.2437 344.8 88.2483 330.057 88.2483 310.076C88.2483 293.262 91.5379 274.742 98.1173 254.517C104.697 234.291 115.419 216.868 130.283 202.247C145.147 187.383 164.033 179.951 186.938 179.951C213.743 179.951 227.146 191.647 227.146 215.041C227.146 228.687 223.247 241.236 215.449 252.689C207.651 264.142 197.295 273.402 184.38 280.469C171.465 287.292 157.697 291.19 143.076 292.165C142.589 299.476 142.345 304.349 142.345 306.786C142.345 318.726 144.416 326.889 148.559 331.276C152.701 335.418 159.403 337.49 168.662 337.49C181.821 337.49 193.03 334.444 202.29 328.352C211.794 322.26 222.15 313 233.359 300.572H245.787C218.739 345.653 185.233 368.193 145.269 368.193ZM146 274.62C155.016 274.133 163.545 270.965 171.587 265.117C179.872 259.268 186.451 251.836 191.325 242.82C196.442 233.804 199.001 224.3 199.001 214.31C199.001 204.319 195.955 199.323 189.863 199.323C181.09 199.323 172.44 206.999 163.911 222.351C155.626 237.703 149.655 255.126 146 274.62ZM200.386 457.38C188.933 457.38 178.942 453.603 170.413 446.049C161.641 438.738 157.254 429.357 157.254 417.904C157.254 407.426 159.935 398.775 165.296 391.952C170.657 385.129 177.602 379.646 186.13 375.503C194.659 371.605 205.99 367.462 220.124 363.076L264.351 154.364C269.225 130.971 277.754 114.766 289.938 105.75C302.365 96.7342 316.011 92.2261 330.876 92.2261C342.329 92.2261 352.32 96.0031 360.848 103.557C369.621 110.868 374.007 120.249 374.007 131.702C374.007 137.307 373.642 142.302 372.911 146.688H355.731C356.219 141.328 356.462 138.038 356.462 136.819C356.462 132.921 355.122 129.875 352.442 127.681C349.761 125.488 346.471 124.392 342.573 124.392C337.455 124.392 332.46 126.707 327.586 131.337C322.713 135.723 319.179 143.399 316.986 154.364L310.772 183.24H337.455L334.897 197.861H307.848L265.813 395.242C260.94 418.878 252.533 435.083 240.593 443.856C228.652 452.872 215.25 457.38 200.386 457.38ZM191.979 424.849C201.726 424.849 208.671 415.345 212.813 396.338L217.565 375.138C204.65 379.524 194.781 384.52 187.958 390.124C180.891 395.973 177.358 403.527 177.358 412.786C177.358 415.711 178.82 418.391 181.744 420.828C184.668 423.508 188.08 424.849 191.979 424.849ZM382.268 368.193C364.48 368.193 350.59 363.563 340.599 354.303C330.608 344.8 325.613 330.057 325.613 310.076C325.613 293.262 328.903 274.742 335.482 254.517C342.061 234.291 352.783 216.868 367.648 202.247C382.512 187.383 401.397 179.951 424.303 179.951C451.108 179.951 464.51 191.647 464.51 215.041C464.51 228.687 460.611 241.236 452.814 252.689C445.016 264.142 434.66 273.402 421.745 280.469C408.83 287.292 395.062 291.19 380.441 292.165C379.954 297.526 379.71 301.181 379.71 303.131C379.71 323.356 387.264 333.469 402.372 333.469C409.195 333.469 416.505 331.641 424.303 327.986C432.101 324.331 439.168 319.701 445.503 314.096C438.924 350.161 417.846 368.193 382.268 368.193ZM383 274.62C392.259 274.377 400.91 271.331 408.951 265.482C417.236 259.634 423.816 252.202 428.689 243.186C433.807 233.926 436.365 224.3 436.365 214.31C436.365 204.319 433.319 199.323 427.227 199.323C418.699 199.323 410.17 207.121 401.641 222.716C393.356 238.068 387.142 255.37 383 274.62Z" fill="white"/>
</g>
</svg>
